<svg id="Layer_1" data-name="Layer 1" xmlns="http://www.w3.org/2000/svg" viewBox="0 0 24 24"><defs><style>.cls-1{fill:#fff;}</style></defs><path class="cls-1" d="M19.5,22.52a.92.92,0,0,1-.61-.22A.94.94,0,0,1,18.77,21,10.7,10.7,0,0,0,2.49,7.07.95.95,0,0,1,1.06,5.82,12.6,12.6,0,0,1,20.22,22.18.9.9,0,0,1,19.5,22.52Z"/><path class="cls-1" d="M2.06,16.59a1,1,0,0,1-.94-.78A10,10,0,0,1,1,14.08,9.61,9.61,0,0,1,20,12.35a1,1,0,0,1-.77,1.11.94.94,0,0,1-1.1-.76A7.71,7.71,0,0,0,2.87,14.08,8,8,0,0,0,3,15.46a.94.94,0,0,1-.76,1.11Z"/><path class="cls-1" d="M9.18,10.67H7.87a2.47,2.47,0,0,0-1.37.39,1.58,1.58,0,0,0-.62,1.42v4.75c0,.25.1.68.79.68s.77-.43.77-.68V12.49a.6.6,0,0,1,.09-.36S7.66,12,8,12H9.18a.56.56,0,0,0,.41-.15.69.69,0,0,0,.15-.52C9.74,10.76,9.39,10.67,9.18,10.67Z"/><path class="cls-1" d="M16,11.68a1.53,1.53,0,0,0-.49-.6,3,3,0,0,0-.65-.3,2,2,0,0,0-.65-.12H12.33a1.71,1.71,0,0,0-.65.13,2.58,2.58,0,0,0-.62.35,1.77,1.77,0,0,0-.62,1.48v3.27a2.13,2.13,0,0,0,.16.86,1.61,1.61,0,0,0,.46.63,2.08,2.08,0,0,0,1.27.47h2.55a.56.56,0,0,0,.46-.24.78.78,0,0,0,.14-.46A.58.58,0,0,0,15,16.5H12.61a.55.55,0,0,1-.49-.19.72.72,0,0,1-.15-.43V12.63a.71.71,0,0,1,.15-.44.59.59,0,0,1,.49-.18H14a.6.6,0,0,1,.5.18.73.73,0,0,1,.15.44v.93H13.56c-.21,0-.57.09-.57.68s.37.67.57.67h1.8a.81.81,0,0,0,.68-.26.91.91,0,0,0,.18-.55V12.55A2,2,0,0,0,16,11.68Z"/></svg>